<?xml version="1.0" encoding="UTF-8"?> <svg xmlns="http://www.w3.org/2000/svg" xmlns:xlink="http://www.w3.org/1999/xlink" width="509px" height="216px" viewBox="0 0 509 216" version="1.1"><!-- Generator: Sketch 48.2 (47327) - http://www.bohemiancoding.com/sketch --><title>logo-hello-work</title><desc>Created with Sketch.</desc><defs></defs><g id="Page-1" stroke="none" stroke-width="1" fill="none" fill-rule="evenodd"><g id="logo-hello-work" fill="#000000" fill-rule="nonzero"><path d="M491.08,130.49 C491.08,125.84 494.84,122.12 499.56,122.12 C504.29,122.12 508.05,125.84 508.05,130.49 C508.05,135.15 504.29,138.87 499.56,138.87 C494.84,138.87 491.08,135.15 491.08,130.49 Z M506.3,130.49 C506.3,126.69 503.32,123.65 499.56,123.65 C495.8,123.65 492.83,126.69 492.83,130.49 C492.83,134.3 495.8,137.34 499.56,137.34 C503.32,137.34 506.3,134.3 506.3,130.49 Z M496.28,125.97 L500.13,125.97 C501.77,125.97 502.87,126.97 502.87,128.46 C502.87,129.55 502.19,130.49 501.16,130.82 L503.63,135 L501.79,135 L499.39,130.97 L498.03,130.97 L498.03,135 L496.28,135 L496.28,125.97 Z M500.13,129.44 C500.74,129.44 501.14,129.05 501.14,128.48 C501.14,127.89 500.74,127.5 500.13,127.5 L498.03,127.5 L498.03,129.44 L500.13,129.44 Z" id="Fill-2"></path><path d="M353.34,213.68 L353.34,139.93 C353.34,134.72 357.56,130.49 362.77,130.49 L373.24,130.49 L373.24,144.85 L372.91,150.72 L373.24,150.72 C377.15,138.32 387.26,129.35 399.66,129.35 L403.41,129.68 L403.41,150.07 C401.94,149.9 400.31,149.74 398.52,149.74 C388.73,149.74 379.6,155.61 375.85,167.19 C374.7,170.94 374.05,175.35 374.05,180.73 L374.05,213.68 L353.34,213.68 Z" id="Fill-4"></path><path d="M410.87,213.68 L410.87,107.31 C410.87,102.1 415.1,97.876 420.31,97.876 L431.59,97.876 L431.59,159.85 L441.86,159.85 L461.92,130.49 L484.92,130.49 L458.66,167.68 L458.66,168.01 L488.18,213.68 L464.37,213.68 L442.35,177.3 L431.59,177.3 L431.59,213.68 L410.87,213.68 Z" id="Fill-6"></path><path d="M0.96482,115.99043 L0.96482,9.62 C0.96482,4.4121 5.18842,0.1904 10.39802,0.1904 L21.67902,0.19043 L21.67902,40.31143 L21.35302,47.32543 L21.67902,47.32543 C26.24702,38.35543 36.84602,30.85343 50.38402,30.85343 C69.62802,30.85343 79.25502,41.45443 79.25502,62.49343 L79.25502,115.99043 L58.70202,115.99043 L58.70202,66.73443 C58.70202,55.64343 55.43902,49.77143 45.49102,49.77143 C34.89002,49.77143 26.24702,56.78443 22.98602,67.05943 C22.16902,69.99543 21.67902,73.58343 21.67902,77.82643 L21.67902,115.99043 L0.96482,115.99043 Z" id="Fill-8"></path><path d="M97.387,43.085 C105.38,34.93 115.49,30.852 127.89,30.852 C139.47,30.852 148.6,34.603 154.96,42.105 C161.48,49.445 164.75,58.903 164.75,70.323 L164.26,78.313 L106.85,78.313 C108.15,92.177 118.75,100.33 131.8,100.33 C139.63,100.33 148.76,96.579 152.84,93.482 L155.78,91.199 L163.77,106.04 C163.12,106.69 162.46,107.51 157.9,110.28 C152.35,113.71 142.89,117.95 130.33,117.95 C116.96,117.95 106.19,113.71 97.875,105.39 C89.72,96.908 85.642,86.633 85.642,74.401 C85.642,61.515 89.558,51.077 97.387,43.085 Z M143.87,64.122 C143.71,53.196 136.7,46.836 127.4,46.836 C116.8,46.836 109.46,53.196 107.5,64.122 L143.87,64.122 Z" id="Fill-10"></path><path d="M179.83,0.18966 L190.95,0.18966 L190.95,88.09866 C190.95,96.74466 193.56,99.51466 199.43,99.51466 L202.53,99.35366 L202.53,117.45966 C200.41,117.77966 198.29,117.94966 196,117.94966 C189.32,117.94966 184.43,116.96966 179.04,113.70966 C173.66,110.27966 170.4,102.44966 170.4,91.19866 L170.4,9.62266 C170.4,4.41296 174.62,0.18936 179.83,0.18936" id="Fill-12"></path><path d="M217.61,0.18966 L228.73,0.18966 L228.73,88.09866 C228.73,96.74466 231.34,99.51466 237.21,99.51466 L240.3,99.35366 L240.3,117.45966 C238.19,117.77966 236.06,117.94966 233.78,117.94966 C227.09,117.94966 222.2,116.96966 216.82,113.70966 C211.44,110.27966 208.18,102.44966 208.18,91.19866 L208.18,9.62266 C208.18,4.41296 212.4,0.18936 217.61,0.18936" id="Fill-14"></path><path d="M269.93,115.99 L269.93,115.88 C269.97,109 272.7,102.57 277.62,97.77 C282.41,93.096 288.69,90.527 295.39,90.548 L295.39,90.529 L297.19,90.539 C304.07,90.577 310.5,93.311 315.31,98.233 C319.98,103.02 322.49,109.37 322.52,115.99 L342.99,115.99 C342.98,103.92 338.36,92.574 329.92,83.938 C321.24,75.059 309.62,70.139 297.21,70.089 L295.39,70.084 L295.39,70.12 C283.36,70.162 271.96,74.716 263.32,83.16 C254.45,91.84 249.53,103.45 249.48,115.86 L249.48,115.99 L269.93,115.99 Z" id="Fill-16"></path><path d="M269.93,169.33 L269.93,169.44 C269.96,176.31 272.7,182.74 277.62,187.55 C282.41,192.22 288.69,194.79 295.39,194.77 L295.39,194.79 L297.2,194.78 C304.07,194.74 310.5,192.01 315.31,187.08 C319.98,182.3 322.49,175.95 322.53,169.33 L343,169.33 C342.98,181.39 338.36,192.74 329.92,201.38 C321.24,210.26 309.62,215.18 297.21,215.23 L295.39,215.24 L295.39,215.2 C283.36,215.16 271.96,210.6 263.32,202.16 C254.45,193.48 249.53,181.86 249.48,169.45 L249.48,169.33 L269.93,169.33 Z" id="Fill-18"></path><path d="M218.99,130.49 L204.79,178.37 L190.58,130.49 L190.33,130.49 L168.73,130.49 L168.48,130.49 L154.27,178.37 L140.07,130.49 L130.49,130.49 C124.38,130.49 120.02,136.4 121.8,142.23 L143.66,213.68 L143.8,213.68 L164.75,213.68 L164.89,213.68 L179.53,165.82 L194.17,213.68 L194.31,213.68 L215.26,213.68 L215.4,213.68 L240.85,130.49 L218.99,130.49 Z" id="Fill-20"></path></g></g></svg> 